<?xml version="1.0" standalone="no"?>
<!DOCTYPE svg PUBLIC "-//W3C//DTD SVG 20010904//EN"
 "http://www.w3.org/TR/2001/REC-SVG-20010904/DTD/svg10.dtd">
<svg version="1.0" xmlns="http://www.w3.org/2000/svg"
 width="500.000000pt" height="500.000000pt" viewBox="0 0 500.000000 500.000000"
 preserveAspectRatio="xMidYMid meet">

<g transform="translate(0.000000,500.000000) scale(0.100000,-0.100000)"
fill="#000000" stroke="none">
<path d="M2389 3997 c-97 -65 -89 -216 14 -266 53 -26 89 -26 144 -1 62 28 85
70 81 147 -4 67 -25 100 -80 129 -42 22 -119 18 -159 -9z m162 -56 c50 -50 33
-144 -30 -171 -88 -36 -171 44 -141 134 15 47 44 66 98 66 35 0 49 -6 73 -29z"/>
<path d="M2811 3948 c-5 -13 -32 -74 -60 -136 -44 -100 -48 -114 -33 -119 9
-3 20 -8 25 -10 4 -2 16 16 26 41 l20 45 60 -27 60 -26 -16 -36 c-8 -19 -17
-40 -20 -47 -5 -14 36 -28 47 -16 5 4 33 64 64 133 54 123 56 139 18 140 -7 0
-27 -29 -43 -65 -16 -36 -31 -65 -33 -65 -2 0 -29 11 -61 25 -35 16 -55 30
-52 38 3 7 17 38 31 69 25 56 25 58 6 68 -26 14 -29 13 -39 -12z"/>
<path d="M2032 3913 c-75 -37 -107 -112 -78 -187 25 -64 65 -98 125 -104 62
-6 101 10 141 55 58 65 19 94 -41 31 -31 -32 -42 -38 -78 -38 -74 0 -125 77
-97 145 18 42 39 57 91 63 43 4 74 29 58 46 -12 12 -88 5 -121 -11z"/>
<path d="M3135 3691 c-107 -50 -132 -162 -56 -244 77 -84 183 -74 248 22 80
119 -62 283 -192 222z m128 -65 c47 -43 48 -106 2 -151 -67 -68 -175 -24 -175
71 0 90 108 140 173 80z"/>
<path d="M1687 3632 c-16 -17 -11 -24 95 -117 l112 -99 48 54 c52 58 56 68 32
77 -9 3 -28 -7 -49 -27 l-33 -32 -90 81 c-50 45 -92 81 -95 81 -2 0 -11 -8
-20 -18z"/>
<path d="M2399 3393 c-27 -7 -36 -44 -31 -133 3 -58 -3 -132 -17 -230 -29
-190 -34 -207 -80 -271 -39 -55 -39 -55 -46 -181 l-8 -125 -29 11 c-52 19 -99
-37 -81 -98 7 -26 17 -34 58 -47 49 -15 50 -16 53 -61 4 -55 -8 -61 -86 -45
-43 9 -55 8 -66 -3 -27 -28 -24 -92 5 -121 16 -16 28 -19 63 -14 50 8 86 -14
86 -52 0 -21 -3 -22 -64 -16 -58 5 -64 4 -80 -18 -20 -29 -21 -68 0 -97 13
-19 24 -22 80 -22 l64 0 0 -34 c0 -31 -4 -35 -32 -41 -47 -10 -58 -23 -58 -66
0 -45 29 -72 68 -62 l25 6 -6 -143 -6 -143 28 -27 c26 -26 34 -28 147 -35 140
-9 330 -1 366 16 42 18 47 44 41 199 -5 111 -3 141 6 136 17 -11 51 22 51 50
0 29 -31 84 -47 84 -7 0 -13 11 -13 24 0 23 2 24 30 13 23 -9 28 -16 24 -33
-7 -26 11 -64 30 -64 7 0 23 11 35 24 l23 25 -25 25 c-22 22 -23 27 -11 43 20
27 17 86 -7 117 -17 21 -18 30 -9 41 8 10 10 34 5 77 -6 56 -5 65 14 82 27 25
26 40 -5 82 -18 23 -22 34 -13 34 20 0 14 164 -7 181 -8 6 -14 22 -14 34 0 12
-18 49 -40 81 -22 33 -40 70 -40 84 0 14 -18 49 -40 79 -47 62 -53 83 -80 266
-14 93 -19 170 -16 230 4 87 -3 121 -28 137 -11 8 -189 9 -217 1z m82 -420 c1
-17 2 -17 6 0 4 13 15 17 56 17 29 0 59 -4 67 -10 26 -16 -39 -32 -117 -28
-39 2 -69 0 -67 -4 3 -5 40 -8 83 -8 l79 0 7 -46 c11 -73 26 -100 19 -34 -3
30 -8 63 -11 74 -3 12 -1 17 8 14 8 -3 17 -27 21 -57 9 -58 34 -113 74 -161
18 -21 30 -50 35 -84 11 -75 11 -416 0 -416 -5 0 -11 93 -13 213 l-3 212 -43
63 c-23 34 -45 62 -49 62 -5 0 6 -19 54 -90 22 -34 23 -41 23 -252 0 -201 -1
-218 -18 -218 -9 0 -23 9 -30 21 -17 27 -54 21 -67 -10 -10 -23 -12 -23 -105
-17 -143 10 -180 16 -180 32 0 17 14 17 80 2 44 -10 53 -9 67 4 32 33 8 64
-117 153 -16 11 -31 27 -33 35 -3 9 -5 5 -6 -8 -1 -20 -3 -21 -22 -11 -21 11
-22 15 -15 138 5 104 10 130 26 151 47 60 75 119 90 189 13 65 18 76 40 82 43
12 60 10 61 -8z m355 -441 c17 -39 12 -52 -22 -52 -23 0 -24 3 -24 63 1 58 2
61 16 42 9 -11 23 -35 30 -53z m34 -132 c0 -38 1 -73 1 -77 1 -5 -14 -11 -34
-14 -44 -7 -47 0 -46 84 1 54 3 57 9 27 l7 -35 2 37 c1 37 2 37 54 47 4 0 7
-30 7 -69z m-632 18 c31 -17 50 -34 44 -36 -7 -2 -10 -8 -6 -13 3 -5 1 -9 -4
-9 -6 0 -8 -8 -5 -19 7 -29 -9 -32 -68 -15 -82 24 -93 41 -67 99 15 33 39 32
106 -7z m118 -51 c2 -7 22 -24 44 -37 74 -45 62 -80 -20 -60 -40 10 -50 16
-45 28 5 14 3 13 -13 -1 -25 -23 -57 -23 -47 1 6 16 21 59 31 90 4 15 42 -1
50 -21z m523 -113 c21 -26 21 -27 2 -58 -21 -34 -28 -81 -17 -108 10 -22 4
-50 -11 -55 -7 -3 -24 7 -39 22 -23 23 -25 31 -19 73 3 26 7 67 9 91 5 64 39
80 75 35z m-589 -9 c0 -8 -7 -15 -15 -15 -8 0 -15 7 -15 15 0 8 7 15 15 15 8
0 15 -7 15 -15z m358 -7 c19 -19 14 -28 -18 -28 -18 0 -30 5 -30 13 0 28 27
36 48 15z m-472 -51 c1 -1 5 -17 9 -34 6 -30 4 -33 -17 -34 -23 -1 -23 -1 2
-8 22 -6 18 -8 -23 -15 -31 -5 -53 -4 -62 4 -20 16 -27 58 -14 81 10 19 17 21
57 15 25 -3 46 -7 48 -9z m152 -26 c31 -9 42 -17 42 -31 0 -15 -10 -20 -47
-26 -32 -5 -48 -3 -51 5 -2 7 -10 4 -20 -9 -31 -36 -43 -29 -47 29 -2 30 -2
58 1 62 3 5 22 2 42 -5 20 -8 56 -19 80 -25z m49 -93 c6 -7 11 -30 11 -50 1
-32 -2 -38 -19 -38 -15 0 -19 4 -15 16 5 14 1 15 -29 10 l-35 -7 0 41 c0 40 0
40 39 40 21 0 43 -6 48 -12z m123 -3 c0 -10 -11 -15 -32 -16 l-33 -1 29 -7
c41 -9 46 -31 7 -31 -17 0 -31 -4 -31 -10 0 -5 14 -10 30 -10 38 0 39 -16 3
-23 -47 -9 -63 7 -63 63 l0 50 45 0 c33 0 45 -4 45 -15z m110 0 c0 -10 -11
-16 -32 -16 -31 -2 -31 -2 -5 -6 34 -5 36 -33 2 -33 -14 0 -25 -4 -25 -10 0
-5 14 -10 30 -10 39 0 39 -16 -1 -24 -58 -11 -59 -11 -59 54 l0 60 45 0 c33 0
45 -4 45 -15z m110 0 c10 -12 10 -21 1 -41 -9 -20 -9 -30 0 -40 17 -21 -19
-19 -43 3 -17 15 -18 15 -18 0 0 -10 -8 -17 -18 -17 -18 0 -19 9 -13 93 1 22
73 24 91 2z m92 -40 c0 -5 -5 -11 -11 -13 -6 -2 -11 4 -11 13 0 9 5 15 11 13
6 -2 11 -8 11 -13z m44 -52 c10 -46 12 -49 13 -18 1 23 4 27 11 15 17 -26 12
-85 -9 -104 -18 -16 -21 -16 -50 -1 -28 14 -31 20 -31 63 0 51 12 72 42 72 11
0 20 -10 24 -27z m-614 -1 c4 -4 9 -23 10 -42 l3 -35 -73 -3 c-80 -3 -102 6
-102 43 0 54 7 58 84 51 39 -4 74 -10 78 -14z m89 -22 c4 -16 7 -19 8 -7 1 13
10 17 40 17 39 0 68 -20 56 -40 -3 -5 -18 -10 -33 -10 -24 -1 -61 -12 -113
-34 -15 -6 -17 1 -18 49 0 55 0 56 26 53 19 -2 29 -11 34 -28z m-11 -124 l35
-13 -48 0 c-32 0 -47 4 -47 14 0 16 14 16 60 -1z m432 -203 c2 -120 3 -223 0
-230 -6 -18 -27 -23 -139 -29 -129 -8 -326 4 -347 19 -12 10 -14 35 -9 154 4
107 9 140 18 136 7 -2 36 7 64 21 58 30 62 31 60 14 -4 -30 2 -39 23 -36 31 4
36 36 8 46 -21 8 -21 8 5 20 21 10 26 18 23 36 -5 23 -2 23 81 29 47 3 106 13
131 21 84 26 77 42 82 -201z m152 182 c3 -8 -3 -19 -13 -24 -21 -12 -31 -5
-31 21 0 22 35 25 44 3z m-476 -20 c24 -8 11 -23 -38 -43 -46 -19 -50 -19 -51
-4 0 14 -2 14 -6 2 -7 -19 -34 -50 -44 -50 -10 0 -17 94 -7 101 8 5 123 1 146
-6z m388 -12 c17 -23 18 -58 1 -72 -20 -16 -27 -4 -27 46 0 47 6 52 26 26z
m-566 -3 c0 -5 -8 -10 -17 -11 -14 0 -12 -3 5 -10 34 -13 24 -41 -22 -58 -37
-14 -40 -14 -57 8 -23 28 -24 45 -3 65 17 18 94 22 94 6z m190 -75 c0 -8 -7
-15 -15 -15 -8 0 -15 7 -15 15 0 8 7 15 15 15 8 0 15 -7 15 -15z"/>
<path d="M2348 2722 c-40 -42 -48 -66 -47 -134 l1 -63 12 78 c10 62 18 83 41
107 16 16 26 32 24 35 -3 3 -17 -8 -31 -23z"/>
<path d="M2492 2543 c2 -10 10 -18 18 -18 8 0 16 8 18 18 2 12 -3 17 -18 17
-15 0 -20 -5 -18 -17z"/>
<path d="M2411 2510 c-16 -9 -6 -30 15 -30 15 0 20 25 6 34 -4 2 -14 1 -21 -4z"/>
<path d="M2533 2423 c-18 -7 -16 -42 3 -50 8 -3 23 1 31 10 13 13 14 19 3 31
-13 17 -17 18 -37 9z m27 -29 c0 -9 -5 -14 -12 -12 -18 6 -21 28 -4 28 9 0 16
-7 16 -16z"/>
<path d="M2627 2363 c-15 -14 -7 -43 12 -43 26 0 36 17 21 35 -14 16 -23 19
-33 8z m33 -24 c0 -5 -7 -9 -15 -9 -15 0 -20 12 -9 23 8 8 24 -1 24 -14z"/>
<path d="M2510 2274 c-11 -12 -10 -18 3 -32 16 -15 18 -15 34 0 13 14 14 20 3
32 -7 9 -16 16 -20 16 -4 0 -13 -7 -20 -16z m40 -13 c0 -14 -18 -23 -30 -16
-6 4 -8 11 -5 16 8 12 35 12 35 0z"/>
<path d="M2812 2350 c0 -19 2 -27 5 -17 2 9 2 25 0 35 -3 9 -5 1 -5 -18z"/>
<path d="M2854 2195 c-7 -19 -14 -45 -13 -57 0 -13 6 -1 13 26 8 26 20 52 27
57 11 7 11 9 1 9 -7 0 -20 -16 -28 -35z"/>
<path d="M2328 2043 c7 -3 16 -2 19 1 4 3 -2 6 -13 5 -11 0 -14 -3 -6 -6z"/>
<path d="M2660 2040 c0 -5 7 -10 15 -10 8 0 15 5 15 10 0 6 -7 10 -15 10 -8 0
-15 -4 -15 -10z"/>
<path d="M2700 1715 c0 -42 4 -64 10 -60 6 3 10 30 10 60 0 30 -4 57 -10 60
-6 4 -10 -18 -10 -60z"/>
<path d="M2560 1755 c-15 -17 -5 -35 20 -35 22 0 33 23 17 39 -15 15 -22 14
-37 -4z m30 -10 c0 -8 -4 -15 -9 -15 -13 0 -22 16 -14 24 11 11 23 6 23 -9z"/>
<path d="M2494 1695 c-4 -9 -2 -21 4 -27 15 -15 44 -1 40 19 -4 23 -36 29 -44
8z m36 -10 c0 -8 -4 -15 -9 -15 -13 0 -22 16 -14 24 11 11 23 6 23 -9z"/>
<path d="M2676 1657 c-5 -26 -5 -70 -2 -97 6 -47 5 -50 -20 -56 -14 -4 -103
-5 -198 -2 -104 3 -159 1 -141 -4 34 -10 353 -12 377 -3 29 11 50 -51 29 -84
-7 -10 -40 -17 -108 -22 l-98 -7 103 2 c117 1 126 7 117 71 -3 22 -8 61 -11
88 -7 59 -23 62 -26 5 -1 -24 -4 2 -7 57 -6 94 -7 97 -15 52z"/>
<path d="M1647 3360 c-70 -4 -130 -9 -132 -12 -2 -2 49 -58 115 -123 115 -115
120 -118 129 -94 7 19 5 29 -10 45 -18 20 -18 21 3 76 18 45 28 58 52 65 16 4
32 18 37 31 10 25 27 24 -194 12z m68 -87 c-9 -20 -17 -38 -18 -39 -1 -1 -21
15 -44 37 l-42 39 60 0 59 0 -15 -37z"/>
<path d="M3337 3303 c-90 -29 -137 -48 -134 -56 2 -7 13 -38 23 -69 13 -42 23
-58 35 -58 27 0 30 14 14 59 -7 22 -11 42 -7 44 4 3 58 21 120 41 61 21 112
41 112 45 0 4 -6 14 -12 23 -12 14 -27 11 -151 -29z"/>
<path d="M1560 2055 c0 -430 3 -655 10 -655 7 0 10 225 10 655 0 430 -3 655
-10 655 -7 0 -10 -225 -10 -655z"/>
<path d="M1615 2055 c0 -363 1 -510 2 -327 2 184 2 481 0 660 -1 180 -2 30 -2
-333z"/>
<path d="M3370 2315 c0 -257 4 -395 10 -395 6 0 10 138 10 395 0 257 -4 395
-10 395 -6 0 -10 -138 -10 -395z"/>
<path d="M3425 2315 c0 -220 1 -309 2 -197 2 112 2 292 0 400 -1 108 -2 17 -2
-203z"/>
<path d="M2963 1909 c-35 -10 -55 -51 -35 -71 6 -6 80 -39 164 -73 84 -34 228
-94 320 -133 92 -40 174 -72 182 -72 21 0 34 27 42 87 l6 51 -55 16 c-30 9
-58 16 -62 16 -4 0 -68 24 -143 54 -146 58 -321 120 -362 128 -14 3 -40 2 -57
-3z m123 -35 c44 -15 142 -51 219 -81 77 -31 172 -65 210 -76 83 -25 80 -23
68 -39 -5 -7 -6 -26 -2 -43 l7 -30 1 31 c0 17 8 38 18 45 15 13 16 10 10 -36
-4 -27 -11 -53 -16 -58 -13 -13 -58 4 -276 101 -104 46 -221 96 -260 109 -107
38 -135 53 -128 70 6 14 36 31 59 32 7 1 47 -11 90 -25z"/>
<path d="M3380 1720 c8 -5 20 -10 25 -10 6 0 3 5 -5 10 -8 5 -19 10 -25 10 -5
0 -3 -5 5 -10z"/>
<path d="M3470 1688 c13 -5 35 -6 48 -3 15 4 21 2 17 -5 -8 -13 5 -13 25 0 17
11 23 10 -65 15 -40 2 -45 1 -25 -7z"/>
<path d="M2911 1744 c-33 -42 -25 -64 40 -102 19 -12 44 -31 55 -43 10 -11 48
-36 84 -54 36 -17 109 -55 163 -83 104 -54 309 -127 331 -119 7 3 18 25 24 49
15 60 -1 82 -75 102 -86 24 -269 94 -343 131 -36 18 -98 58 -138 89 -82 63
-111 69 -141 30z m128 -45 c84 -65 214 -129 376 -184 71 -24 131 -49 133 -55
3 -8 -3 -10 -19 -6 -24 7 -24 7 1 -8 33 -20 12 -20 -35 0 -20 8 -39 13 -41 11
-3 -2 19 -13 48 -24 l53 -20 5 20 c7 24 26 33 32 15 9 -22 -4 -79 -17 -85 -18
-6 -203 60 -295 106 -162 82 -236 123 -260 145 -14 13 -44 36 -68 50 -29 18
-42 33 -40 44 3 9 10 16 16 15 7 -2 11 0 11 5 -6 37 29 27 100 -29z"/>
<path d="M3004 1669 c51 -47 146 -109 146 -94 0 2 -21 16 -47 29 -27 13 -64
41 -83 61 -19 20 -44 42 -55 47 -11 6 6 -13 39 -43z"/>
<path d="M3160 1566 c0 -3 9 -10 20 -16 11 -6 20 -8 20 -6 0 3 -9 10 -20 16
-11 6 -20 8 -20 6z"/>
<path d="M3408 1494 c6 -3 10 -9 8 -12 -2 -4 10 -8 26 -8 33 -1 21 9 -22 20
-14 3 -19 3 -12 0z"/>
</g>
</svg>
